<svg xmlns="http://www.w3.org/2000/svg" width="59.714" height="54.989" viewBox="0 0 59.714 54.989">
  <g id="MOH-Logo" transform="translate(-1020 -70)">
    <g id="Group" transform="translate(1020 70)">
      <g id="Group-2" data-name="Group" transform="translate(0 0)">
        <path id="Vector" d="M2.82,4.673H2.782L.853.832H0v5H.365V1.76H.422L2.483,5.837h.169L4.684,1.731h.028V5.837h.834v-5H4.712ZM6.652,2.119V5.837H7.41V1.9H7.186ZM7.335.114A.352.352,0,0,0,7.195.028a.515.515,0,0,0-.337,0,.432.432,0,0,0-.141.085.607.607,0,0,0-.094.123.28.28,0,0,0-.037.151.28.28,0,0,0,.037.151.607.607,0,0,0,.094.123.352.352,0,0,0,.141.085.515.515,0,0,0,.337,0A.352.352,0,0,0,7.335.662.39.39,0,0,0,7.429.539.28.28,0,0,0,7.467.388.28.28,0,0,0,7.429.236.607.607,0,0,0,7.335.114Zm3.916,2.128a.927.927,0,0,0-.684-.341,1.568,1.568,0,0,0-.759.2,2.7,2.7,0,0,0-.721.587v-.7H8.328v3.86h.759V2.98a2.039,2.039,0,0,1,.272-.227c.094-.066.187-.123.281-.18a2.086,2.086,0,0,1,.272-.114.863.863,0,0,1,.253-.038.554.554,0,0,1,.44.2.863.863,0,0,1,.169.577V5.837h.759V3.065a1.441,1.441,0,0,0-.075-.454A1.014,1.014,0,0,0,11.251,2.242ZM13.125.114a.352.352,0,0,0-.141-.085.515.515,0,0,0-.337,0,.432.432,0,0,0-.141.085.39.39,0,0,0-.094.123.28.28,0,0,0-.037.151.28.28,0,0,0,.037.151.607.607,0,0,0,.094.123.352.352,0,0,0,.141.085.515.515,0,0,0,.337,0,.352.352,0,0,0,.141-.085.607.607,0,0,0,.094-.123.28.28,0,0,0,.037-.151.28.28,0,0,0-.037-.151A.39.39,0,0,0,13.125.114Zm-.675,2.005V5.837h.759V1.9h-.225Zm4.01,1.892a1.984,1.984,0,0,0-.356-.246c-.131-.066-.272-.132-.412-.2s-.281-.123-.412-.18a2.515,2.515,0,0,1-.356-.189,1.021,1.021,0,0,1-.253-.236.484.484,0,0,1-.094-.3.4.4,0,0,1,.056-.2.488.488,0,0,1,.15-.161.775.775,0,0,1,.234-.114,1,1,0,0,1,.3-.038.975.975,0,0,1,.571.18,1.616,1.616,0,0,1,.487.539l.281-.255a2.636,2.636,0,0,0-.328-.369,1.274,1.274,0,0,0-.319-.218,1.326,1.326,0,0,0-.328-.1,2.172,2.172,0,0,0-.356-.028,1.85,1.85,0,0,0-.525.076,1.333,1.333,0,0,0-.412.227,1.062,1.062,0,0,0-.272.341.955.955,0,0,0-.094.435.956.956,0,0,0,.084.426.977.977,0,0,0,.234.322,1.755,1.755,0,0,0,.328.246c.122.066.244.132.375.2s.253.123.375.18a2.149,2.149,0,0,1,.328.189.931.931,0,0,1,.234.236.554.554,0,0,1,.084.312.408.408,0,0,1-.056.208.548.548,0,0,1-.15.18.652.652,0,0,1-.225.123.935.935,0,0,1-.29.047,1.109,1.109,0,0,1-.309-.038,1.034,1.034,0,0,1-.272-.132,1.78,1.78,0,0,1-.262-.227A2.665,2.665,0,0,1,14.24,4.9l-.309.284a2.2,2.2,0,0,0,.347.369,1.637,1.637,0,0,0,.356.218,1.688,1.688,0,0,0,.356.1,2.231,2.231,0,0,0,.347.028,1.94,1.94,0,0,0,.646-.095,1.255,1.255,0,0,0,.459-.246.944.944,0,0,0,.272-.369,1.228,1.228,0,0,0,.094-.454.89.89,0,0,0-.094-.426A1.24,1.24,0,0,0,16.46,4.011Zm2.782,1.362a.4.4,0,0,1-.234.066.434.434,0,0,1-.159-.028.317.317,0,0,1-.131-.085.4.4,0,0,1-.084-.132.446.446,0,0,1-.028-.161V2.308h.862V1.987h-.862V.662H18.39c-.037.2-.084.378-.131.558a1.612,1.612,0,0,1-.206.464A.9.9,0,0,1,17.716,2a1.08,1.08,0,0,1-.525.114V2.3h.665V5.023a1.528,1.528,0,0,0,.047.369.672.672,0,0,0,.141.284.625.625,0,0,0,.234.18.742.742,0,0,0,.337.066,1.189,1.189,0,0,0,.628-.151,1.218,1.218,0,0,0,.4-.416l-.187-.132C19.374,5.279,19.308,5.335,19.243,5.373Zm3.1-3.339a.883.883,0,0,0-.187-.1.641.641,0,0,0-.234-.038.661.661,0,0,0-.3.066,1.343,1.343,0,0,0-.29.18,2.227,2.227,0,0,0-.262.255,1.932,1.932,0,0,0-.234.312V1.977h-.759v3.86h.759V3.16a2.563,2.563,0,0,1,.159-.236,1.672,1.672,0,0,1,.159-.189.572.572,0,0,1,.15-.123.309.309,0,0,1,.15-.047.37.37,0,0,1,.159.028c.047.019.084.038.131.057a1,1,0,0,0,.141.066.6.6,0,0,0,.206.028.459.459,0,0,0,.319-.095.359.359,0,0,0,.112-.284.394.394,0,0,0-.047-.18A1.01,1.01,0,0,0,22.343,2.034Zm2.614,2.734-1.48-2.781h-.862l1.958,3.68-.253.577c-.028.066-.066.142-.1.227a1.306,1.306,0,0,1-.131.227.724.724,0,0,1-.169.17.335.335,0,0,1-.206.066.468.468,0,0,1-.178-.028c-.047-.019-.084-.038-.122-.057a.7.7,0,0,0-.122-.057.522.522,0,0,0-.187-.028.416.416,0,0,0-.187.038.37.37,0,0,0-.141.095.671.671,0,0,0-.094.132.446.446,0,0,0-.028.161.394.394,0,0,0,.047.18.378.378,0,0,0,.131.142.956.956,0,0,0,.2.095.935.935,0,0,0,.234.028,1,1,0,0,0,.365-.066,1.535,1.535,0,0,0,.365-.2,1.924,1.924,0,0,0,.337-.341,2.241,2.241,0,0,0,.281-.492l1.949-4.531h-.4ZM32.489,2.45a2.107,2.107,0,0,0-.637-.407,2.222,2.222,0,0,0-.806-.151,2.043,2.043,0,0,0-.806.161A1.806,1.806,0,0,0,29.6,2.5a2.164,2.164,0,0,0-.422.653,2.114,2.114,0,0,0-.15.8,1.894,1.894,0,0,0,.15.766,2.033,2.033,0,0,0,.422.624,1.822,1.822,0,0,0,.637.416,2.039,2.039,0,0,0,.806.151,1.894,1.894,0,0,0,.806-.17,2.065,2.065,0,0,0,.637-.454,2.142,2.142,0,0,0,.422-.672,2.176,2.176,0,0,0,.15-.823,1.761,1.761,0,0,0-.15-.738A1.845,1.845,0,0,0,32.489,2.45Zm-.356,2.3a1.405,1.405,0,0,1-.215.464,1.033,1.033,0,0,1-.328.312.773.773,0,0,1-.412.114,1,1,0,0,1-.553-.161,1.407,1.407,0,0,1-.412-.435A2.091,2.091,0,0,1,29.96,4.4a3.55,3.55,0,0,1-.094-.795,1.726,1.726,0,0,1,.084-.549,2.029,2.029,0,0,1,.215-.454,1.074,1.074,0,0,1,.319-.3.694.694,0,0,1,.375-.114,1.09,1.09,0,0,1,.628.161,1.192,1.192,0,0,1,.412.426,2.113,2.113,0,0,1,.234.634,4.134,4.134,0,0,1,.075.785A2.168,2.168,0,0,1,32.133,4.749ZM36.462.189a1.253,1.253,0,0,0-.337-.142A1.643,1.643,0,0,0,35.675,0a1.345,1.345,0,0,0-.553.114,1.306,1.306,0,0,0-.45.322,1.435,1.435,0,0,0-.3.482,1.6,1.6,0,0,0-.112.6v.454h-.8v.322h.8V5.827h.759V2.289H36.04V1.968H35.019V1.05a.944.944,0,0,1,.037-.284A.848.848,0,0,1,35.169.52a.486.486,0,0,1,.169-.17.362.362,0,0,1,.215-.066.409.409,0,0,1,.234.057.4.4,0,0,1,.122.132,1.015,1.015,0,0,1,.066.18,1.015,1.015,0,0,0,.066.18.314.314,0,0,0,.112.132.346.346,0,0,0,.215.057.385.385,0,0,0,.15-.028A.269.269,0,0,0,36.64.918.258.258,0,0,0,36.724.8a.4.4,0,0,0,.028-.151A.479.479,0,0,0,36.677.4.761.761,0,0,0,36.462.189ZM42.3,3.112H39.806V.832h-.834v5h.834v-2.4H42.3v2.4h.834v-5H42.3ZM47.31,4.739a1.4,1.4,0,0,1-.319.3,1.539,1.539,0,0,1-.412.208,1.338,1.338,0,0,1-.478.085,1.183,1.183,0,0,1-.543-.132,1.374,1.374,0,0,1-.431-.378,1.739,1.739,0,0,1-.281-.577,2.513,2.513,0,0,1-.1-.719h2.848a1.5,1.5,0,0,0-.122-.615,1.628,1.628,0,0,0-.347-.52,1.774,1.774,0,0,0-.534-.359A1.812,1.812,0,0,0,45.9,1.9a1.831,1.831,0,0,0-.768.161,1.63,1.63,0,0,0-.59.445,2.177,2.177,0,0,0-.384.681,2.551,2.551,0,0,0-.131.861,1.748,1.748,0,0,0,.15.728,1.855,1.855,0,0,0,.4.6,1.809,1.809,0,0,0,.59.4,1.87,1.87,0,0,0,.731.151,1.634,1.634,0,0,0,.59-.114,2.117,2.117,0,0,0,.534-.3,2.464,2.464,0,0,0,.431-.454,1.788,1.788,0,0,0,.262-.558L47.5,4.4A1.232,1.232,0,0,1,47.31,4.739ZM44.856,2.81a1.111,1.111,0,0,1,.206-.322,1.025,1.025,0,0,1,.281-.218.668.668,0,0,1,.328-.076,1.03,1.03,0,0,1,.384.076.917.917,0,0,1,.309.218.859.859,0,0,1,.206.331,1.161,1.161,0,0,1,.075.407h-1.9A1.677,1.677,0,0,1,44.856,2.81Zm6.08-.634a1.1,1.1,0,0,0-.422-.208,2.692,2.692,0,0,0-1.227-.009,1.947,1.947,0,0,0-.487.189,1.284,1.284,0,0,0-.337.284.575.575,0,0,0-.122.359.556.556,0,0,0,.028.18.357.357,0,0,0,.084.142.336.336,0,0,0,.131.095.438.438,0,0,0,.159.038.366.366,0,0,0,.187-.047.325.325,0,0,0,.112-.114.469.469,0,0,0,.056-.161,1.3,1.3,0,0,0,.019-.2.867.867,0,0,1,.028-.218.511.511,0,0,1,.094-.189.453.453,0,0,1,.187-.132.781.781,0,0,1,.319-.047,1.06,1.06,0,0,1,.309.047.5.5,0,0,1,.234.161.782.782,0,0,1,.15.293,1.538,1.538,0,0,1,.047.445V3.32c-.169.047-.347.085-.525.142a4.858,4.858,0,0,0-.525.17c-.169.066-.328.142-.478.218a2.11,2.11,0,0,0-.393.284,1.252,1.252,0,0,0-.272.359,1.112,1.112,0,0,0-.028.823.935.935,0,0,0,.2.3,1.049,1.049,0,0,0,.309.208,1.092,1.092,0,0,0,.4.076,1.423,1.423,0,0,0,.422-.057,1.81,1.81,0,0,0,.337-.142,1.508,1.508,0,0,0,.281-.2l.262-.208v.53h.759V2.914A1.174,1.174,0,0,0,51.16,2.5.746.746,0,0,0,50.936,2.176Zm-.459,2.857c-.075.057-.15.114-.225.161s-.141.095-.215.132a2.276,2.276,0,0,1-.225.095,1.009,1.009,0,0,1-.244.038.5.5,0,0,1-.234-.057.612.612,0,0,1-.2-.151A.774.774,0,0,1,49,5.023a.633.633,0,0,1-.047-.265.529.529,0,0,1,.066-.265.866.866,0,0,1,.187-.236,1.59,1.59,0,0,1,.272-.208,3.474,3.474,0,0,1,.319-.18c.112-.057.225-.1.347-.151s.234-.085.337-.123V5.033ZM52.285.218V5.837h.759V0h-.215Zm3.354,5.156a.42.42,0,0,1-.234.066.434.434,0,0,1-.159-.028.393.393,0,0,1-.131-.085.4.4,0,0,1-.084-.132A.446.446,0,0,1,55,5.033V2.308h.862V1.987H55V.662h-.225c-.037.2-.084.378-.131.558a1.612,1.612,0,0,1-.206.464A.9.9,0,0,1,54.1,2a1.105,1.105,0,0,1-.525.114V2.3h.665V5.023a1.528,1.528,0,0,0,.047.369.672.672,0,0,0,.141.284.625.625,0,0,0,.234.18A.742.742,0,0,0,55,5.922a1.133,1.133,0,0,0,.618-.151,1.218,1.218,0,0,0,.4-.416l-.187-.132A1.371,1.371,0,0,1,55.639,5.373Zm3.953-2.762a1.172,1.172,0,0,0-.206-.369A.927.927,0,0,0,58.7,1.9a1.568,1.568,0,0,0-.759.2,2.7,2.7,0,0,0-.721.587V.009h-.215l-.543.218V5.846h.759V2.98a2.805,2.805,0,0,1,.262-.227c.094-.066.187-.123.272-.18a2.086,2.086,0,0,1,.272-.114.863.863,0,0,1,.253-.038.554.554,0,0,1,.44.2.863.863,0,0,1,.169.577V5.837h.759V3.065A.924.924,0,0,0,59.592,2.611Z" transform="translate(0 47.355)" fill="#fff"/>
        <path id="Vector-2" data-name="Vector" d="M18.727,3.14c-.459.284-.927.6-1.171.766-.749.53-1.518,1.088-2.277,1.665a66.316,66.316,0,0,0-9.218,8.457H0S14.83,1.106,21.631.112c6.061-.88,8.422,3.547,7.916,8.315a6.225,6.225,0,0,0-1.527-4.853,5.965,5.965,0,0,0-2.333-1.627,6.043,6.043,0,0,0-2.782-.378A10.059,10.059,0,0,0,18.727,3.14Z" transform="translate(22.306 14.304)" fill="#fff"/>
        <path id="Vector-3" data-name="Vector" d="M10.887,3.14c.459.284.927.6,1.171.766.749.53,1.518,1.088,2.277,1.665a66.315,66.315,0,0,1,9.218,8.457h6.061S14.784,1.106,7.983.112C1.921-.767-.439,3.66.066,8.428A6.225,6.225,0,0,1,1.593,3.575,5.965,5.965,0,0,1,3.926,1.948a6.026,6.026,0,0,1,2.782-.378A10.1,10.1,0,0,1,10.887,3.14Z" transform="translate(7.719 14.304)" fill="#fff"/>
        <path id="Vector-4" data-name="Vector" d="M29.51,9.034h-2.7l.028-.17a8.01,8.01,0,0,0,.122-1.258c0-1.665-.731-3.614-2.792-3.614a3.491,3.491,0,0,0-1.949.719,6.411,6.411,0,0,0-1.658,1.684c-.487.757-.862,1.6-1.274,2.393-.037.076-.084.161-.122.236h-.047V5.808h-.834V9.025H15.851V8.7A4.282,4.282,0,0,0,11.326,4.1H8.113v.719c.234-.019,2.97-.028,3.1-.028,2.333,0,3.729,1.532,3.738,4.1v.142H4.647V3.6c-.244-.028-.684-.047-.871-.047A3.677,3.677,0,0,0,0,7.038,2.48,2.48,0,0,0,.824,8.977a2.938,2.938,0,0,0,1.939.681h.262l.534-.577.047-.047H3A1.952,1.952,0,0,1,.909,7a2.625,2.625,0,0,1,.984-2.138,2.809,2.809,0,0,1,1.621-.605H3.8v5.4H30.325V0h-.834V9.034Zm-3.532-.1-.028.1H19.973l.037-.17c.525-2.346,2.614-4.172,4.066-4.172.468,0,2,.218,2,3.074A5.826,5.826,0,0,1,25.978,8.93Zm7.008.728h.834V0h-.834ZM2.22,2.223a.635.635,0,0,0,.637-.643.637.637,0,1,0-1.274,0A.635.635,0,0,0,2.22,2.223Zm37.97.009a.635.635,0,0,0,.637-.643.637.637,0,1,0-1.274,0A.635.635,0,0,0,40.19,2.233ZM4.122,2.223a.643.643,0,1,0-.637-.643A.641.641,0,0,0,4.122,2.223ZM48.846,9.658h.834V0h-.834ZM37.979,7.114a2.605,2.605,0,0,0,2.764,2.545h1.874V3.614a7.022,7.022,0,0,0-.815-.047A3.654,3.654,0,0,0,37.979,7.114Zm3.8,1.92h-.8A1.964,1.964,0,0,1,38.879,7a2.616,2.616,0,0,1,2.6-2.743h.309ZM52.95.946a.643.643,0,1,0,.637.643A.653.653,0,0,0,52.95.946Zm6.174,2.81a3.627,3.627,0,0,0-3.878,3.415A2.509,2.509,0,0,0,57.9,9.658a2.723,2.723,0,0,0,.319-.009l.412-.435.178-.189h-.553a1.939,1.939,0,0,1-2.117-1.958A2.679,2.679,0,0,1,58.73,4.5h.141V9.781c0,1.012-.187,1.949-1.546,1.949a2.7,2.7,0,0,1-.431-.047l-.1.643a3.78,3.78,0,0,0,.749.066A2.018,2.018,0,0,0,59.7,10.141V3.8A5.053,5.053,0,0,0,59.124,3.756Zm-6.6,6.433c0,1.107-.44,1.561-1.518,1.561A2.2,2.2,0,0,1,50.6,11.7l-.1.672a4.517,4.517,0,0,0,.749.057,1.91,1.91,0,0,0,2.127-2V4.465h-.834v5.723ZM42.092.946a.643.643,0,1,0,.637.643A.653.653,0,0,0,42.092.946Zm3.363,9.242c0,1.107-.44,1.561-1.518,1.561a2.2,2.2,0,0,1-.412-.047l-.1.672a4.517,4.517,0,0,0,.749.057,1.9,1.9,0,0,0,2.117-2V4.465h-.834Z" transform="translate(0.009 33.61)" fill="#fff"/>
        <path id="Vector-5" data-name="Vector" d="M7.757,2.091,5.7,0,3.878,1.835,2.061,0,0,2.091,2.061,4.181,3.878,2.346,5.7,4.181Z" transform="translate(9.527 18.569)" fill="#fff"/>
        <path id="Vector-6" data-name="Vector" d="M18.952,5.127a7.541,7.541,0,0,0-.571-1.088A7.294,7.294,0,0,0,9.8,1.069C9.612.388,9.471,0,9.471,0s-.15.4-.328,1.069A7.3,7.3,0,0,0,.571,4.039,7.541,7.541,0,0,0,0,5.127a7.311,7.311,0,0,1,5-2.4A7.415,7.415,0,0,0,2.136,8.589a7.6,7.6,0,0,0,.1,1.23,7.43,7.43,0,0,1,3.429-5.1,7.479,7.479,0,0,0,.384,7.35,7.034,7.034,0,0,0,.749.974,7.46,7.46,0,0,1,1.686-8.3C8.441,5.3,8.4,5.884,8.4,6.48a20.885,20.885,0,0,0,1.068,6.489A20.885,20.885,0,0,0,10.539,6.48a17.276,17.276,0,0,0-.084-1.731,7.46,7.46,0,0,1,1.686,8.3,7.648,7.648,0,0,0,.749-.974,7.455,7.455,0,0,0,.384-7.35,7.4,7.4,0,0,1,3.429,5.1,7.508,7.508,0,0,0,.1-1.23A7.4,7.4,0,0,0,13.94,2.724,7.3,7.3,0,0,1,18.952,5.127Z" transform="translate(20.385 0)" fill="#fff"/>
        <path id="Vector-7" data-name="Vector" d="M0,2.827s5.274-7.681,14.54,2.28c8.731,9.384,12,7.8,14.483,4.824a3.964,3.964,0,0,1-.356.719c-.169.274-.272.426-.309.473A6.351,6.351,0,0,1,23.2,13.857c-2.782.028-6.23-1.655-10.09-5.959C4.516-1.685,0,2.827,0,2.827Z" transform="translate(22.446 14.475)" fill="#fff"/>
      </g>
    </g>
  </g>
</svg>
